<?xml version="1.0" encoding="UTF-8" standalone="no"?>
<!-- Created with Inkscape (http://www.inkscape.org/) -->

<svg
   width="128"
   height="128"
   viewBox="0 0 33.866666 33.866666"
   version="1.1"
   id="svg1"
   inkscape:version="1.3 (0e150ed6c4, 2023-07-21)"
   sodipodi:docname="core.svg"
   inkscape:export-filename="core.png"
   inkscape:export-xdpi="96"
   inkscape:export-ydpi="96"
   xmlns:inkscape="http://www.inkscape.org/namespaces/inkscape"
   xmlns:sodipodi="http://sodipodi.sourceforge.net/DTD/sodipodi-0.dtd"
   xmlns="http://www.w3.org/2000/svg"
   xmlns:svg="http://www.w3.org/2000/svg">
  <sodipodi:namedview
     id="namedview1"
     pagecolor="#505050"
     bordercolor="#ffffff"
     borderopacity="1"
     inkscape:showpageshadow="0"
     inkscape:pageopacity="0"
     inkscape:pagecheckerboard="1"
     inkscape:deskcolor="#505050"
     inkscape:document-units="mm"
     showguides="true"
     inkscape:zoom="3.1899563"
     inkscape:cx="61.442848"
     inkscape:cy="62.226558"
     inkscape:window-width="1596"
     inkscape:window-height="876"
     inkscape:window-x="0"
     inkscape:window-y="20"
     inkscape:window-maximized="1"
     inkscape:current-layer="layer1" />
  <defs
     id="defs1" />
  <g
     inkscape:label="Layer 1"
     inkscape:groupmode="layer"
     id="layer1">
    <rect
       style="fill:#4400aa;fill-opacity:0.99952298;stroke-width:0.529167;stroke-miterlimit:38.7"
       id="rect1"
       width="33.866665"
       height="33.866665"
       x="0"
       y="0" />
    <path
       id="path3"
       style="fill:#6600ff;fill-opacity:1;stroke-width:0.293631;stroke-miterlimit:38.7"
       inkscape:transform-center-x="-2.8138708"
       inkscape:transform-center-y="-0.00020030051"
       d="M 25.4,2.5840854e-4 8.4666666,0.00180869 12.643156,8.3532366 a 9.6107204,9.6107208 1.3889658 0 1 4.290177,-1.0309445 9.6107204,9.6107208 1.3889658 0 1 4.297412,1.017509 z M 21.230745,8.3398011 l -4.296378,8.5937909 -0.001,-0.0016 -8.5798378,4.290695 a 9.6107204,9.6107208 1.3889658 0 0 4.2896608,4.290177 l 4.289144,-8.579838 10e-4,0.0016 8.59379,-4.297929 A 9.6107204,9.6107208 1.3889658 0 0 21.230745,8.3398011 Z m 4.296379,4.2968949 a 9.6107204,9.6107208 1.3889658 0 1 1.016992,4.296379 9.6107204,9.6107208 1.3889658 0 1 -1.031462,4.290694 l 8.354013,4.176489 -0.0016,-16.933333 z m -0.01447,8.587073 -8.57932,-4.289144 4.28966,8.578288 a 9.6107204,9.6107208 1.3889658 0 0 4.28966,-4.289144 z m -4.28966,4.289144 a 9.6107204,9.6107208 1.3889658 0 1 -4.289661,1.030945 9.6107204,9.6107208 1.3889658 0 1 -4.290177,-1.030945 L 8.4666666,33.866408 25.4,33.864858 Z M 8.3534952,21.222736 A 9.6107204,9.6107208 1.3889658 0 1 7.3225503,16.933075 9.6107204,9.6107208 1.3889658 0 1 8.3534952,12.642897 L 4.0471926e-8,8.4664082 0.00155004,25.399742 Z m 0,-8.579839 8.5798378,4.289144 -4.290177,-8.5788044 A 9.6107204,9.6107208 1.3889658 0 0 8.3534952,12.642897 Z" />
  </g>
</svg>
